<svg height="32" viewBox="0 0 32 32" width="32" xmlns="http://www.w3.org/2000/svg">
  <g fill="none" fill-rule="evenodd">
    <path
      d="m20.2819426 17h2.4361148c.4457594 0 .6074025.0464128.7703655.1335664.1629629.0871535.2908572.2150478.3780107.3780107.0871536.162963.1335664.3246061.1335664.7703655v2.4361148c0 .4457594-.0464128.6074025-.1335664.7703655-.0871535.1629629-.2150478.2908572-.3780107.3780107-.162963.0871536-.3246061.1335664-.7703655.1335664h-2.4361148c-.4457594 0-.6074025-.0464128-.7703655-.1335664-.1629629-.0871535-.2908572-.2150478-.3780107-.3780107-.0871536-.162963-.1335664-.3246061-.1335664-.7703655v-2.4361148c0-.4457594.0464128-.6074025.1335664-.7703655.0871535-.1629629.2150478-.2908572.3780107-.3780107.162963-.0871536.3246061-.1335664.7703655-.1335664z"
      fill="#f9bb97"
    />
    <path
      d="m8.5 5h15c2.4852814 0 4.5 2.01471863 4.5 4.5v2.5h-24v-2.5c0-2.48528137 2.01471863-4.5 4.5-4.5z"
      fill="#f9bb97"
    />
    <path
      d="m8.8777704 4.75h14.2444592c1.7830375 0 2.42961.18565122 3.0814618.53426541.6518519.34861418 1.163429.86019133 1.5120432 1.51204318s.5342654 1.29842433.5342654 3.08146181v12.2444592c0 1.7830375-.1856512 2.42961-.5342654 3.0814618-.3486142.6518519-.8601913 1.163429-1.5120432 1.5120432-.6518518.3486142-1.2984243.5342654-3.0814618.5342654h-14.2444592c-1.78303748 0-2.42960996-.1856512-3.08146181-.5342654s-1.163429-.8601913-1.51204318-1.5120432c-.34861419-.6518518-.53426541-1.2984243-.53426541-3.0814618v-12.2444592c0-1.78303748.18565122-2.42960996.53426541-3.08146181.34861418-.65185185.86019133-1.163429 1.51204318-1.51204318.65185185-.34861419 1.29842433-.53426541 3.08146181-.53426541z"
      stroke="#000"
      stroke-linejoin="round"
      stroke-width="1.5"
    />
    <path d="m4 12.25h24" stroke="#000" stroke-width="1.5" />
    <g fill="#000">
      <rect height="5" rx=".75" width="1.5" x="9" y="2" />
      <rect height="5" rx=".75" width="1.5" x="21.5" y="2" />
    </g>
  </g>
</svg>
