<svg width="32" height="32" xmlns="http://www.w3.org/2000/svg">
  <g fill="none" fill-rule="evenodd" stroke-linejoin="round" stroke="#000" stroke-width="1.5">
    <path
      d="M21 3.75c-5.1 0-9.25 3.7-9.25 8.25 0 4.56 4.14 8.25 9.25 8.25.62 0 1.23-.05 1.81-.16a6.7 6.7 0 0 0 3.06 2.13 1 1 0 0 0 1.16-1.46l-.15-.27a9.33 9.33 0 0 1-.67-1.67A8.04 8.04 0 0 0 30.25 12c0-4.56-4.14-8.25-9.25-8.25Z"
    />
    <path
      d="M11 9.75c5.1 0 9.25 3.7 9.25 8.25 0 4.56-4.14 8.25-9.25 8.25-.62 0-1.23-.05-1.81-.16a6.7 6.7 0 0 1-3.06 2.13 1 1 0 0 1-1.16-1.46l.15-.27c.26-.49.48-1.05.67-1.67A8.04 8.04 0 0 1 1.75 18c0-4.56 4.14-8.25 9.25-8.25Z"
      fill="#83D7CF"
    />
  </g>
</svg>
