<svg height="32" viewBox="0 0 32 32" width="32" xmlns="http://www.w3.org/2000/svg"><g fill="none" fill-rule="evenodd" transform="translate(3.75 2.5)"><path d="m.25 7.5 11.5 6v13l-11.5-6.5z" fill="#fad266"/><g stroke="#000" stroke-width="1.5"><path d="m12.7353919.41365792 10.5 5.90625c.4723154.26567745.7646081.76545334.7646081 1.30736331v11.74545757c0 .5419099-.2922927 1.0416858-.7646081 1.3073633l-10.5 5.90625c-.4566204.2568489-1.0141634.2568489-1.4707838 0l-10.49999996-5.90625c-.47231547-.2656775-.76460814-.7654534-.76460814-1.3073633v-11.74545757c0-.54190997.29229267-1.04168586.76460814-1.30736331l10.49999996-5.90625c.4566204-.25684892 1.0141634-.25684892 1.4707838 0z"/><path d="m.25 7 11.75 6.5 11.75-6.5"/><path d="m12 13.5v13"/></g></g></svg>