<svg height="32" viewBox="0 0 32 32" width="32" xmlns="http://www.w3.org/2000/svg"><g fill="none" fill-rule="evenodd"><path d="m5.2819426 6h17.4361148c.4457594 0 .6074025.04641281.7703655.13356635.1629629.08715355.2908572.21504784.3780107.3780108.0871536.16296296.1335664.32460608.1335664.77036545v5.4361148c0 .4457594-.0464128.6074025-.1335664.7703655-.0871535.1629629-.2150478.2908572-.3780107.3780107-.162963.0871536-.3246061.1335664-.7703655.1335664h-17.4361148c-.44575937 0-.60740249-.0464128-.77036545-.1335664-.16296296-.0871535-.29085725-.2150478-.3780108-.3780107-.08715354-.162963-.13356635-.3246061-.13356635-.7703655v-5.4361148c0-.44575937.04641281-.60740249.13356635-.77036545.08715355-.16296296.21504784-.29085725.3780108-.3780108.16296296-.08715354.32460608-.13356635.77036545-.13356635z" fill="#c18ccb"/><path d="m24.25 7.25v3h3.5c.8284271 0 1.5.6715729 1.5 1.5v12c0 1.3807119-1.1192881 2.5-2.5 2.5h-19.5c-1.93299662 0-3.5-1.5670034-3.5-3.5v-15.5c0-.82842712.67157288-1.5 1.5-1.5h17.5c.8284271 0 1.5.67157288 1.5 1.5z" stroke="#000" stroke-linejoin="round" stroke-width="1.5"/><g fill="#000"><rect height="1.5" rx=".75" width="12" x="8" y="17"/><path d="m3 13h22v1.5h-22z"/><rect height="1.5" rx=".75" width="7" x="8" y="21"/></g><path d="m26.75 26.25c-1.3807119 0-2.5-1.1192881-2.5-2.5v-14" stroke="#000" stroke-linecap="round" stroke-linejoin="round" stroke-width="1.5"/></g></svg>