<svg width="24" height="24" xmlns="http://www.w3.org/2000/svg" xmlns:xlink="http://www.w3.org/1999/xlink"><defs><path d="M10.706 0v16.25H4.077l.004-.139c0-2.487-1.573-4.599-3.844-5.649L0 10.358a4.614 4.614 0 0 0 1.581-3.483c0-.526-.087-1.031-.249-1.502V0h9.374Z" id="a"/></defs><g fill="none" fill-rule="evenodd"><g transform="translate(11.294 2)"><mask id="b" fill="#fff"><use xlink:href="#a"/></mask><path d="M4.456 9.5c1.36 0 2.595.47 3.487 1.241.85.735 1.388 1.746 1.388 2.87-.36.446-.671.598-1.043.731-1.007.36-2.42.533-3.832.533-1.41 0-2.824-.172-3.831-.533-.372-.133-.684-.285-.891-.48-.153-1.375.385-2.386 1.235-3.12C1.862 9.97 3.096 9.5 4.456 9.5Zm0-7.5c.656 0 1.25.266 1.68.696.43.43.695 1.023.695 1.679 0 .656-.265 1.25-.695 1.68-.43.43-1.024.695-1.68.695-.655 0-1.25-.266-1.679-.696a2.368 2.368 0 0 1-.696-1.679c0-.656.266-1.25.696-1.68A2.368 2.368 0 0 1 4.457 2Z" stroke="#000" stroke-width="1.5" fill-opacity=".15" fill="#000" fill-rule="nonzero" mask="url(#b)"/></g><path d="M8.25 14c1.36 0 2.595.47 3.487 1.241.85.735 1.388 1.746 1.388 2.87-.36.446-.672.598-1.043.731-1.008.36-2.421.533-3.832.533s-2.824-.172-3.832-.533c-.371-.133-.683-.285-.89-.48-.153-1.375.385-2.386 1.235-3.12C5.655 14.47 6.89 14 8.25 14Zm0-7.5c.656 0 1.25.266 1.68.696.43.43.695 1.023.695 1.679 0 .656-.266 1.25-.696 1.68-.43.43-1.023.695-1.679.695-.656 0-1.25-.266-1.68-.696a2.368 2.368 0 0 1-.695-1.679c0-.656.266-1.25.696-1.68A2.368 2.368 0 0 1 8.25 6.5Z" stroke="#000" stroke-width="1.5" fill-opacity=".15" fill="#000" fill-rule="nonzero"/></g></svg>