<svg height="32" width="32" xmlns="http://www.w3.org/2000/svg"><g fill="none" fill-rule="evenodd"><path d="M20.282 17h2.436c.446 0 .607.046.77.134a.906.906 0 01.378.378c.088.163.134.324.134.77v2.436c0 .446-.046.607-.134.77a.909.909 0 01-.378.378c-.163.088-.324.134-.77.134h-2.436c-.446 0-.607-.046-.77-.134a.909.909 0 01-.378-.378c-.088-.163-.134-.324-.134-.77v-2.436c0-.446.046-.607.134-.77a.909.909 0 01.378-.378c.163-.088.324-.134.77-.134zM8.5 5h15A4.5 4.5 0 0128 9.5V12H4V9.5A4.5 4.5 0 018.5 5z" fill="#f9bb97"/><path d="M8.878 4.75h14.244c1.783 0 2.43.186 3.082.534.652.349 1.163.86 1.512 1.512s.534 1.299.534 3.082v12.244c0 1.783-.186 2.43-.534 3.082a3.635 3.635 0 01-1.512 1.512c-.652.348-1.299.534-3.082.534H8.878c-1.783 0-2.43-.186-3.082-.534s-1.163-.86-1.512-1.512c-.348-.652-.534-1.299-.534-3.082V9.878c0-1.783.186-2.43.534-3.082a3.635 3.635 0 011.512-1.512c.652-.348 1.299-.534 3.082-.534z" stroke="#000" stroke-linejoin="round" stroke-width="1.5"/><path d="M4 12.25h24" stroke="#000" stroke-width="1.5"/><g fill="#000"><rect height="5" rx=".75" width="1.5" x="9" y="2"/><rect height="5" rx=".75" width="1.5" x="21.5" y="2"/></g></g></svg>