<svg height="32" width="32" xmlns="http://www.w3.org/2000/svg"><g fill="none" fill-rule="evenodd"><path d="M5.282 6h17.436c.446 0 .607.046.77.134a.906.906 0 01.378.378c.088.163.134.324.134.77v5.436c0 .446-.046.607-.134.77a.909.909 0 01-.378.378c-.163.088-.324.134-.77.134H5.282c-.446 0-.607-.046-.77-.134a.909.909 0 01-.378-.378c-.088-.163-.134-.324-.134-.77V7.282c0-.446.046-.607.134-.77a.909.909 0 01.378-.378c.163-.088.324-.134.77-.134z" fill="#c18ccb"/><path d="M24.25 7.25v3h3.5a1.5 1.5 0 011.5 1.5v12a2.5 2.5 0 01-2.5 2.5H7.25a3.5 3.5 0 01-3.5-3.5V7.25a1.5 1.5 0 011.5-1.5h17.5a1.5 1.5 0 011.5 1.5z" stroke="#000" stroke-linejoin="round" stroke-width="1.5"/><g fill="#000"><rect height="1.5" rx=".75" width="12" x="8" y="17"/><path d="M3 13h22v1.5H3z"/><rect height="1.5" rx=".75" width="7" x="8" y="21"/></g><path d="M26.75 26.25a2.5 2.5 0 01-2.5-2.5v-14" stroke="#000" stroke-linecap="round" stroke-linejoin="round" stroke-width="1.5"/></g></svg>